<svg xmlns="http://www.w3.org/2000/svg" viewBox="0 0 128 128" width="128" height="128">
  <!-- Background circle with gradient -->
  <defs>
    <linearGradient id="bgGradient" x1="0%" y1="0%" x2="100%" y2="100%">
      <stop offset="0%" style="stop-color:#3b82f6;stop-opacity:1" />
      <stop offset="100%" style="stop-color:#1e40af;stop-opacity:1" />
    </linearGradient>
    <linearGradient id="docGradient" x1="0%" y1="0%" x2="100%" y2="100%">
      <stop offset="0%" style="stop-color:#ffffff;stop-opacity:1" />
      <stop offset="100%" style="stop-color:#e0e7ff;stop-opacity:1" />
    </linearGradient>
  </defs>
  
  <!-- Main background circle -->
  <circle cx="64" cy="64" r="60" fill="url(#bgGradient)" />
  
  <!-- Document stack (3 documents with slight offset) -->
  <!-- Back document -->
  <rect x="42" y="36" width="38" height="50" rx="3" fill="#cbd5e1" opacity="0.6" />
  
  <!-- Middle document -->
  <rect x="38" y="40" width="38" height="50" rx="3" fill="#e2e8f0" opacity="0.8" />
  
  <!-- Front document with details -->
  <rect x="34" y="44" width="38" height="50" rx="3" fill="url(#docGradient)" stroke="#3b82f6" stroke-width="1.5" />
  
  <!-- Document lines (representing text) -->
  <line x1="40" y1="54" x2="66" y2="54" stroke="#3b82f6" stroke-width="2" stroke-linecap="round" />
  <line x1="40" y1="62" x2="62" y2="62" stroke="#60a5fa" stroke-width="2" stroke-linecap="round" />
  <line x1="40" y1="70" x2="64" y2="70" stroke="#60a5fa" stroke-width="2" stroke-linecap="round" />
  <line x1="40" y1="78" x2="58" y2="78" stroke="#93c5fd" stroke-width="2" stroke-linecap="round" />
  
  <!-- Digital/tech element - binary dots pattern on the right side -->
  <circle cx="76" cy="52" r="2.5" fill="#fbbf24" />
  <circle cx="84" cy="52" r="2.5" fill="#fbbf24" />
  <circle cx="92" cy="52" r="2.5" fill="#fbbf24" />
  
  <circle cx="76" cy="62" r="2.5" fill="#f59e0b" />
  <circle cx="84" cy="62" r="2.5" fill="#fbbf24" />
  <circle cx="92" cy="62" r="2.5" fill="#f59e0b" />
  
  <circle cx="76" y="72" r="2.5" fill="#fbbf24" />
  <circle cx="84" cy="72" r="2.5" fill="#f59e0b" />
  <circle cx="92" cy="72" r="2.5" fill="#fbbf24" />
  
  <!-- Globe/world icon at bottom (representing "world" in Paperless World) -->
  <circle cx="64" cy="100" r="12" fill="none" stroke="#fbbf24" stroke-width="2" />
  <ellipse cx="64" cy="100" rx="5" ry="12" fill="none" stroke="#fbbf24" stroke-width="1.5" />
  <line x1="52" y1="100" x2="76" y2="100" stroke="#fbbf24" stroke-width="1.5" />
  <path d="M 64 88 Q 70 94 64 100 Q 58 106 64 112" fill="none" stroke="#fbbf24" stroke-width="1.5" />
</svg>
